<?xml version="1.0" encoding="utf-8" ?><svg xmlns="http://www.w3.org/2000/svg" xmlns:xlink="http://www.w3.org/1999/xlink" width="1344" height="768" viewBox="0 0 1344 768"><path fill="#6B6975" d="M757.575 106.395L820.608 106.424C827.777 106.423 847.821 105.961 853.871 107.331C869.736 113.659 876.151 121.663 876.496 138.82C876.767 152.256 876.685 165.689 876.676 179.128L876.617 251.779L876.608 304.438C876.619 332.27 877.358 357.609 865.573 383.522C862.482 390.319 858.864 399.598 854.823 405.896C852.785 409.993 848.351 416.834 845.568 420.714C839.951 429.043 834.736 435.589 828.188 443.225C822.927 449.07 818.304 454.127 812.667 459.659C807.975 464.472 800.927 471.247 795.626 475.608C790.305 480.017 785.876 483.54 780.269 487.555C774.648 491.862 769.122 495.565 763.267 499.514L757.559 503.204C750.27 507.581 742.481 511.731 735.016 515.845L735.017 336.055L746.736 336.045C741.067 329.755 735.861 329.194 734.696 321.812C734.304 314.715 734.634 304.702 734.682 297.425L734.985 250.628L735.06 106.646C741.762 106.227 750.707 106.436 757.575 106.395Z"/><path fill="#601214" d="M853.871 107.331C869.736 113.659 876.151 121.663 876.496 138.82C876.767 152.256 876.685 165.689 876.676 179.128L876.617 251.779L876.608 304.438C876.619 332.27 877.358 357.609 865.573 383.522C862.482 390.319 858.864 399.598 854.823 405.896L853.932 405.639C853.49 397.826 853.808 387.037 853.846 378.98L844.995 378.832C838.793 378.786 832.44 378.895 826.223 378.929C821.477 379.044 816.733 378.926 811.986 378.847C806.544 378.649 800.145 378.819 794.63 378.829C794.576 373.242 794.615 367.423 794.195 361.871C790.954 361.671 790.177 360.179 790.234 357.393C791.202 355.133 793.379 353.523 795.249 351.844C792.11 350.049 789.741 348.691 790.483 344.861C791.749 343.247 792.094 343.156 794.012 342.373C794.562 334.2 794.335 325.692 794.176 317.497C788.761 309.207 789.906 304.395 794.93 296.503C796.201 295.613 797.527 294.804 798.9 294.08C803.508 291.645 806.501 292.239 811.245 293.731C812.172 290.511 812.143 285.592 812.276 282.122C824.442 281.136 841.335 281.782 853.844 281.995L853.976 254.961L853.848 214.132C853.975 205.433 853.873 196.47 853.879 187.749L853.848 140.268C854.036 129.466 853.87 118.173 853.871 107.331Z"/><path fill="#6B6975" d="M812.276 282.122C824.442 281.136 841.335 281.782 853.844 281.995C854.147 314.322 854.147 346.652 853.846 378.98L844.995 378.832C838.793 378.786 832.44 378.895 826.223 378.929C821.477 379.044 816.733 378.926 811.986 378.847C806.544 378.649 800.145 378.819 794.63 378.829C794.576 373.242 794.615 367.423 794.195 361.871C790.954 361.671 790.177 360.179 790.234 357.393C791.202 355.133 793.379 353.523 795.249 351.844C792.11 350.049 789.741 348.691 790.483 344.861C791.749 343.247 792.094 343.156 794.012 342.373C794.562 334.2 794.335 325.692 794.176 317.497C788.761 309.207 789.906 304.395 794.93 296.503C796.201 295.613 797.527 294.804 798.9 294.08C803.508 291.645 806.501 292.239 811.245 293.731C812.172 290.511 812.143 285.592 812.276 282.122Z"/><path fill="#55535D" d="M826.238 282.297L845.059 282.327C844.882 314.168 845.622 347.277 844.995 378.832C838.793 378.786 832.44 378.895 826.223 378.929C826.426 346.718 826.431 314.507 826.238 282.297Z"/><path fill="#C0A168" d="M794.93 296.503C796.201 295.613 797.527 294.804 798.9 294.08C803.508 291.645 806.501 292.239 811.245 293.731C825.426 304.44 822.147 311.024 810.787 322.183C811.834 324.516 813.323 327.068 812.989 329.492C812.297 330.608 812.167 331.006 811.019 331.688C812.315 336.322 811.971 371.825 811.986 378.847C806.544 378.649 800.145 378.819 794.63 378.829C794.576 373.242 794.615 367.423 794.195 361.871C790.954 361.671 790.177 360.179 790.234 357.393C791.202 355.133 793.379 353.523 795.249 351.844C792.11 350.049 789.741 348.691 790.483 344.861C791.749 343.247 792.094 343.156 794.012 342.373C794.562 334.2 794.335 325.692 794.176 317.497C788.761 309.207 789.906 304.395 794.93 296.503Z"/><defs><linearGradient id="gradient_0" gradientUnits="userSpaceOnUse" x1="819.99335" y1="340.76089" x2="796.49164" y2="378.13834"><stop offset="0" stop-color="#383840"/><stop offset="1" stop-color="#56545E"/></linearGradient></defs><path fill="url(#gradient_0)" d="M811.019 331.688C812.315 336.322 811.971 371.825 811.986 378.847C806.544 378.649 800.145 378.819 794.63 378.829C794.576 373.242 794.615 367.423 794.195 361.871C796.564 361.684 799.008 361.173 801.022 362.174C802.312 364.833 802.91 370.034 807.388 368.602C813.318 361.592 806.186 336.531 811.019 331.688Z"/><path fill="#55535D" d="M794.012 342.373C794.562 334.2 794.335 325.692 794.176 317.497L800.617 322.257C800.335 323.351 799.185 327.685 799.475 328.379C802.199 334.913 802.872 335.443 802.489 342.654C799.906 342.639 796.5 342.721 794.012 342.373Z"/><path fill="#55535D" d="M802.629 299.661C807.15 298.292 811.926 300.837 813.312 305.354C814.699 309.87 812.172 314.658 807.662 316.062C803.128 317.473 798.309 314.93 796.916 310.388C795.522 305.847 798.084 301.038 802.629 299.661Z"/><path fill="#55535D" d="M862.924 195.306C865.786 194.087 869.093 195.431 870.292 198.301C871.492 201.172 870.126 204.47 867.248 205.651C864.398 206.82 861.138 205.469 859.95 202.626C858.762 199.783 860.09 196.514 862.924 195.306Z"/><path fill="#55535D" d="M864.204 262.243C867.114 261.774 869.883 263.661 870.512 266.541C871.141 269.421 869.412 272.291 866.572 273.08C864.589 273.631 862.464 273.04 861.05 271.544C859.636 270.048 859.165 267.893 859.826 265.943C860.487 263.994 862.172 262.57 864.204 262.243Z"/><path fill="#6B6975" d="M863.902 120.518C866.773 119.865 869.64 121.623 870.362 124.478C871.084 127.333 869.396 130.243 866.56 131.034C864.663 131.563 862.629 131.022 861.245 129.621C859.862 128.22 859.346 126.178 859.897 124.288C860.449 122.397 861.982 120.954 863.902 120.518Z"/><path fill="#601214" d="M735.06 106.646C741.762 106.227 750.707 106.436 757.575 106.395C757.313 117.042 757.22 127.692 757.294 138.341L757.321 378.29C757.309 418.695 756.421 463.058 757.559 503.204C750.27 507.581 742.481 511.731 735.016 515.845L735.017 336.055L746.736 336.045C741.067 329.755 735.861 329.194 734.696 321.812C734.304 314.715 734.634 304.702 734.682 297.425L734.985 250.628L735.06 106.646Z"/><path fill="#55535D" d="M743.946 195.308C745.834 194.415 748.059 194.618 749.754 195.838C751.45 197.058 752.349 199.103 752.103 201.178C751.856 203.252 750.503 205.03 748.569 205.819C745.689 206.994 742.397 205.661 741.144 202.813C739.892 199.965 741.134 196.638 743.946 195.308Z"/><path fill="#55535D" d="M744.198 386.334C746.078 385.498 748.263 385.746 749.908 386.983C751.552 388.219 752.399 390.25 752.119 392.288C751.839 394.327 750.477 396.054 748.56 396.802C745.69 397.92 742.452 396.543 741.267 393.699C740.082 390.856 741.383 387.586 744.198 386.334Z"/><path fill="#55535D" d="M744.773 120.437C747.67 119.539 750.756 121.103 751.744 123.971C752.732 126.839 751.264 129.973 748.429 131.05C746.516 131.777 744.358 131.404 742.799 130.077C741.24 128.75 740.526 126.679 740.937 124.673C741.348 122.667 742.818 121.044 744.773 120.437Z"/><path fill="#55535D" d="M744.087 262.895C745.942 261.951 748.168 262.119 749.86 263.33C751.552 264.542 752.429 266.595 752.133 268.655C751.838 270.716 750.42 272.44 748.456 273.127C745.687 274.096 742.641 272.752 741.489 270.054C740.337 267.356 741.473 264.226 744.087 262.895Z"/><path fill="#55535D" d="M758.01 378.419C764.54 378.635 770.558 378.814 777.112 378.659L779.468 378.77C784.745 378.924 789.361 379.04 794.63 378.829C800.145 378.819 806.544 378.649 811.986 378.847C816.733 378.926 821.477 379.044 826.223 378.929C832.44 378.895 838.793 378.786 844.995 378.832L853.846 378.98C853.808 387.037 853.49 397.826 853.932 405.639L854.823 405.896C852.785 409.993 848.351 416.834 845.568 420.714C839.951 429.043 834.736 435.589 828.188 443.225C822.927 449.07 818.304 454.127 812.667 459.659C807.975 464.472 800.927 471.247 795.626 475.608C790.305 480.017 785.876 483.54 780.269 487.555C774.648 491.862 769.122 495.565 763.267 499.514C760.852 491.78 761.601 470.477 761.532 461.512L761.252 406.472L759.026 406.109C756.982 403.33 757.939 383.309 758.01 378.419Z"/><path fill="#817F91" d="M758.01 378.419C764.54 378.635 770.558 378.814 777.112 378.659L779.468 378.77C784.745 378.924 789.361 379.04 794.63 378.829C800.145 378.819 806.544 378.649 811.986 378.847C816.733 378.926 821.477 379.044 826.223 378.929C832.44 378.895 838.793 378.786 844.995 378.832L853.846 378.98C853.808 387.037 853.49 397.826 853.932 405.639C844.157 406.396 823.138 405.703 812.268 405.682C806.28 405.866 800.188 405.728 794.19 405.653C791.507 405.644 779.437 405.461 777.789 406.082C772.278 406.27 766.765 406.4 761.252 406.472L759.026 406.109C756.982 403.33 757.939 383.309 758.01 378.419Z"/><path fill="#55535D" d="M837.697 385.643C840.907 384.913 844.118 386.857 844.96 390.04C845.802 393.223 843.973 396.501 840.822 397.455C838.683 398.102 836.362 397.531 834.768 395.964C833.174 394.397 832.562 392.085 833.172 389.934C833.783 387.784 835.518 386.138 837.697 385.643Z"/><path fill="#55535D" d="M770.343 386.244C773.444 384.906 777.042 386.339 778.377 389.442C779.711 392.546 778.276 396.143 775.172 397.475C772.072 398.805 768.481 397.372 767.149 394.272C765.816 391.173 767.246 387.58 770.343 386.244Z"/><path fill="#55535D" d="M803.548 385.659C805.642 384.999 807.929 385.527 809.522 387.039C811.114 388.551 811.761 390.808 811.21 392.934C810.66 395.06 808.999 396.72 806.873 397.269C803.704 398.087 800.46 396.231 799.558 393.084C798.656 389.936 800.426 386.643 803.548 385.659Z"/><path fill="#6B6975" d="M853.932 405.639L854.823 405.896C852.785 409.993 848.351 416.834 845.568 420.714C839.951 429.043 834.736 435.589 828.188 443.225C822.927 449.07 818.304 454.127 812.667 459.659C811.19 446.431 812.789 420.45 812.268 405.682C823.138 405.703 844.157 406.396 853.932 405.639Z"/><path fill="#55535D" d="M826.764 406.31L845.054 406.353C845.05 411.145 845.222 415.935 845.568 420.714C839.951 429.043 834.736 435.589 828.188 443.225C825.732 437.966 826.559 413.472 826.764 406.31Z"/><path fill="#55535D" d="M794.19 405.653C800.188 405.728 806.28 405.866 812.268 405.682C812.789 420.45 811.19 446.431 812.667 459.659C807.975 464.472 800.927 471.247 795.626 475.608C793.037 469.447 793.569 415.621 794.19 405.653Z"/><path fill="#6B6975" d="M777.789 406.082C779.437 405.461 791.507 405.644 794.19 405.653C793.569 415.621 793.037 469.447 795.626 475.608C790.305 480.017 785.876 483.54 780.269 487.555C777.985 482.937 780.677 436.806 779.751 429.132C779.116 423.858 780.941 412.338 779.25 406.678L777.789 406.082Z"/><path fill="#6B6975" d="M779.694 214.422C783.391 213.84 800.284 213.903 804.241 213.905L853.848 214.132L853.976 254.961L853.844 281.995C841.335 281.782 824.442 281.136 812.276 282.122C812.143 285.592 812.172 290.511 811.245 293.731C806.501 292.239 803.508 291.645 798.9 294.08C797.527 294.804 796.201 295.613 794.93 296.503C793.816 292.725 794.112 286.223 794.136 282.144L779.889 282.161C773.669 282.203 767.449 282.284 761.23 282.405C760.397 282.234 759.819 281.912 759.036 281.567C757.424 278.524 757.805 259.481 758.332 255.372C759.922 254.348 762.247 254.739 764.475 254.72C769.507 254.639 774.541 254.627 779.574 254.683C780.414 245.027 779.745 224.793 779.694 214.422Z"/><path fill="#817F91" d="M764.475 254.72C769.507 254.639 774.541 254.627 779.574 254.683L794.104 254.739L811.954 254.745L826.76 254.751L845.141 254.733L853.976 254.961L853.844 281.995C841.335 281.782 824.442 281.136 812.276 282.122C812.143 285.592 812.172 290.511 811.245 293.731C806.501 292.239 803.508 291.645 798.9 294.08C797.527 294.804 796.201 295.613 794.93 296.503C793.816 292.725 794.112 286.223 794.136 282.144L779.889 282.161C773.669 282.203 767.449 282.284 761.23 282.405C760.397 282.234 759.819 281.912 759.036 281.567C757.424 278.524 757.805 259.481 758.332 255.372C759.922 254.348 762.247 254.739 764.475 254.72Z"/><path fill="#55535D" d="M794.136 282.144C800.078 282.154 806.366 282.269 812.276 282.122C812.143 285.592 812.172 290.511 811.245 293.731C806.501 292.239 803.508 291.645 798.9 294.08C797.527 294.804 796.201 295.613 794.93 296.503C793.816 292.725 794.112 286.223 794.136 282.144Z"/><path fill="#55535D" d="M804.611 262.244C807.933 261.663 811.103 263.866 811.718 267.183C812.334 270.499 810.165 273.693 806.856 274.343C804.684 274.77 802.451 273.997 801.007 272.319C799.564 270.641 799.132 268.317 799.878 266.232C800.623 264.148 802.431 262.625 804.611 262.244Z"/><path fill="#55535D" d="M770.559 262.891C773.544 261.594 777.016 262.949 778.334 265.926C779.651 268.902 778.321 272.385 775.354 273.723C772.358 275.075 768.835 273.728 767.504 270.722C766.174 267.716 767.545 264.201 770.559 262.891Z"/><path fill="#55535D" d="M836.947 262.898C839.836 261.513 843.302 262.713 844.716 265.589C846.131 268.464 844.967 271.942 842.108 273.387C840.231 274.336 837.99 274.203 836.238 273.039C834.487 271.875 833.495 269.86 833.642 267.762C833.789 265.664 835.051 263.806 836.947 262.898Z"/><path fill="#55535D" d="M826.348 214.372C832.661 214.553 838.976 214.632 845.291 214.609L845.141 254.733L826.76 254.751C826.727 241.74 826.982 227.257 826.348 214.372Z"/><path fill="#55535D" d="M793.991 214.573C799.992 214.584 805.993 214.506 811.993 214.339L811.954 254.745L794.104 254.739L793.991 214.573Z"/><path fill="#817F91" d="M757.575 106.395L820.608 106.424C827.777 106.423 847.821 105.961 853.871 107.331C853.87 118.173 854.036 129.466 853.848 140.268L845.055 140.465L826.58 140.455L812.424 140.476C806.8 140.725 799.809 140.496 794.084 140.458L779.572 140.471C773.462 140.485 767.352 140.553 761.243 140.675C758.473 139.948 759.519 140.481 757.294 138.341C757.22 127.692 757.313 117.042 757.575 106.395Z"/><path fill="#6B6975" d="M770.959 121.069C773.105 120.347 775.474 120.854 777.137 122.391C778.8 123.928 779.492 126.25 778.942 128.447C778.392 130.644 776.687 132.366 774.496 132.937C771.266 133.779 767.95 131.911 766.997 128.712C766.043 125.512 767.795 122.133 770.959 121.069Z"/><path fill="#6B6975" d="M803.293 121.075C805.394 120.363 807.714 120.849 809.353 122.344C810.991 123.839 811.687 126.106 811.171 128.263C810.655 130.42 809.008 132.126 806.87 132.717C803.693 133.595 800.394 131.786 799.426 128.634C798.458 125.483 800.172 122.133 803.293 121.075Z"/><path fill="#55535D" d="M837.621 121.098C840.679 120.124 843.959 121.75 845.034 124.775C846.11 127.799 844.594 131.132 841.608 132.308C839.586 133.105 837.29 132.735 835.62 131.344C833.949 129.953 833.17 127.762 833.587 125.628C834.004 123.495 835.55 121.758 837.621 121.098Z"/><path fill="#55535D" d="M779.889 282.161L794.136 282.144C794.112 286.223 793.816 292.725 794.93 296.503C789.906 304.395 788.761 309.207 794.176 317.497C794.335 325.692 794.562 334.2 794.012 342.373C792.094 343.156 791.749 343.247 790.483 344.861C789.741 348.691 792.11 350.049 795.249 351.844C793.379 353.523 791.202 355.133 790.234 357.393C790.177 360.179 790.954 361.671 794.195 361.871C794.615 367.423 794.576 373.242 794.63 378.829C789.361 379.04 784.745 378.924 779.468 378.77L777.112 378.659C772.624 377.809 766.224 378.021 761.484 378.019L761.23 282.405C767.449 282.284 773.669 282.203 779.889 282.161Z"/><path fill="#6B6975" d="M779.889 282.161L794.136 282.144C794.112 286.223 793.816 292.725 794.93 296.503C789.906 304.395 788.761 309.207 794.176 317.497C794.335 325.692 794.562 334.2 794.012 342.373C792.094 343.156 791.749 343.247 790.483 344.861C789.741 348.691 792.11 350.049 795.249 351.844C793.379 353.523 791.202 355.133 790.234 357.393C790.177 360.179 790.954 361.671 794.195 361.871C794.615 367.423 794.576 373.242 794.63 378.829C789.361 379.04 784.745 378.924 779.468 378.77C780.466 367.838 779.888 354.35 779.862 343.125L779.889 282.161Z"/><path fill="#817F91" d="M758.121 187.553C788.979 188.195 823.809 186.492 853.879 187.749C853.873 196.47 853.975 205.433 853.848 214.132L804.241 213.905C800.284 213.903 783.391 213.84 779.694 214.422C774.456 214.839 767.293 214.715 761.905 214.768C760.399 214.713 760.411 214.692 758.968 214.21C757.262 210.768 758.072 192.798 758.121 187.553Z"/><path fill="#6B6975" d="M804.329 194.598C806.49 194.078 808.763 194.774 810.263 196.414C811.763 198.055 812.253 200.381 811.542 202.488C810.832 204.594 809.033 206.148 806.846 206.545C803.595 207.134 800.464 205.029 799.783 201.795C799.102 198.561 801.116 195.371 804.329 194.598Z"/><path fill="#55535D" d="M836.726 195.281C838.668 194.349 840.962 194.54 842.722 195.781C844.482 197.022 845.433 199.119 845.208 201.261C844.982 203.404 843.615 205.256 841.635 206.104C838.664 207.375 835.222 206.038 833.887 203.095C832.552 200.151 833.813 196.68 836.726 195.281Z"/><path fill="#55535D" d="M771.277 195.261C774.171 194.011 777.531 195.337 778.793 198.226C780.055 201.116 778.743 204.483 775.859 205.756C772.958 207.037 769.569 205.716 768.301 202.809C767.032 199.903 768.366 196.519 771.277 195.261Z"/><path fill="#55535D" d="M761.243 140.675C767.352 140.553 773.462 140.485 779.572 140.471L779.577 187.082L761.185 186.997C761.15 171.725 760.908 155.905 761.243 140.675Z"/><path fill="#55535D" d="M826.58 140.455L845.055 140.465C846.001 152.366 844.933 173.985 844.895 186.959L826.822 187.06C826.498 171.793 826.691 155.783 826.58 140.455Z"/><path fill="#55535D" d="M794.084 140.458C799.809 140.496 806.8 140.725 812.424 140.476C813.153 151.945 812.488 174.852 812.488 187.07L794.041 187.05L794.084 140.458Z"/><path fill="#55535D" d="M761.905 214.768C767.293 214.715 774.456 214.839 779.694 214.422C779.745 224.793 780.414 245.027 779.574 254.683C774.541 254.627 769.507 254.639 764.475 254.72C763.047 254.417 762.837 254.303 761.51 253.666C760.859 249.175 760.936 216.946 761.905 214.768Z"/><path fill="#C0A168" d="M539.126 467.028C502.103 433.795 472.448 388.839 467.92 338.205C466.295 320.033 467.255 298.566 467.291 280.067L467.336 185.505C467.299 168.829 466.937 151.848 467.87 135.186C468.205 132.237 468.389 128.352 469.318 125.56C477.565 100.768 515.387 106.166 536.565 106.268L607.048 106.398C606.964 119.715 607.012 133.034 607.192 146.35L607.606 330.036C605.701 331.872 603.956 332.851 603.542 335.023C604.814 336.102 605.205 336.019 606.936 336.275C607.924 394.655 607.102 455.323 607.094 513.895C583.914 501.11 557.939 485.475 539.126 467.028Z"/><path fill="#0F6846" d="M572.121 158.387C574.973 164.283 585.94 180.47 591.985 182.161C592.654 182.003 593.746 181.89 594.089 181.455C609.474 161.834 578.5 150.125 577.531 132.008C576.849 119.258 593.778 111.599 601.652 121.035C603.516 123.271 604.377 126.177 604.031 129.068C602.592 141.666 586.138 141.424 589.675 128.37C592.938 128.69 592.735 134.744 597.119 134.074C598.599 132.311 598.639 131.928 599.133 129.659C595.922 112.797 574.62 130.134 587.346 141.572C593.369 146.985 599.467 146.418 607.192 146.35L607.606 330.036C605.701 331.872 603.956 332.851 603.542 335.023C604.814 336.102 605.205 336.019 606.936 336.275C607.924 394.655 607.102 455.323 607.094 513.895C583.914 501.11 557.939 485.475 539.126 467.028C553.083 457.863 561.366 443.6 566.683 427.989C574.088 406.068 577.443 372.427 566.977 351.181C557.486 331.912 521.216 318.884 501.629 328.868C492.032 333.759 484.138 344.539 490.114 355.168C492.369 359.129 496.112 362.027 500.512 363.216C504.336 364.237 508.778 363.922 512.2 361.826C514.504 360.439 516.161 358.191 516.804 355.579C518.892 346.932 510.501 341.756 505.877 345.026C505.929 348.347 511.017 349.513 510.185 354.319C504.104 360.193 496.024 352.148 497.548 345.842C500.879 332.057 519.51 332.74 525.454 344.247C532.509 357.904 521.746 375.113 506.826 376.07C485.168 377.46 462.773 353.608 475.929 332.887C479.98 326.558 490.277 322.911 496.973 319.392C480.187 318.233 462.929 308.562 470.795 287.769C473.25 282.984 477.702 281.179 482.025 279.557C498.563 273.348 515.822 298.75 495.32 305.58C489.303 307.584 480.506 301.136 484.678 294.75C485.428 293.602 487.015 292.989 488.333 292.882C490.528 294.79 488.989 297.945 491.397 300.344C497.578 298.706 497.365 289.761 492.934 288.416C476.957 283.509 472.203 305.119 487.358 309.998C496.058 312.799 513.719 313.407 522.317 310.708C528.017 308.918 515.948 292.082 524.333 289.168C528.973 293.278 525.059 301.117 540.371 310.654C537.413 303.853 528.221 285.669 533.127 279.221C535.357 278.627 536.717 280.007 539.285 281.328C541.39 281.162 541.746 281.013 543.668 281.704C546.023 286.594 539.3 295.777 540.431 300.594C542.426 309.087 565.298 326.204 573.223 325.573C574.858 324.846 576.139 323.687 576.667 321.92C583.275 299.965 563.652 276.924 543.837 270.671C525.383 264.024 526.586 279.8 516.449 285.865C506.263 291.96 506.076 282.357 508.672 274.984C506.1 274.067 498.443 271.597 498.884 269.141C501.825 252.75 521.892 261.319 531.938 263.48C535.27 264.197 538.142 264.003 540.071 264.008C530.094 254.159 506.205 243.445 492.018 253.166C488.598 255.51 486.115 266.986 479.304 264.902C474.668 263.484 478.356 260.984 476.77 257.877C475.499 256.424 472.678 255.704 471.197 252.848C471.341 242.492 498.273 246.364 506.179 246.086C500.265 241.581 481.9 232.918 481.227 223.571C480.907 219.134 486.749 219.229 488.986 217.739C489.556 217.36 489.189 213.381 489.168 212.425C490.392 210.147 493.432 207.406 496.144 208.795C506.071 213.879 506.493 233.798 514.415 240.238C520.399 245.103 535.994 248.303 543.875 250.805C542.925 249.647 541.996 248.47 541.09 247.277C531.067 234.019 531.181 218.045 544.96 229.687C544.708 229.474 549.508 228.992 551.302 229.43C556.239 233.298 549.349 240.69 546.402 244.236C552.031 256.839 560.37 259.849 570.96 267.122C574.839 269.787 580.529 273.737 585.39 271.706C586.395 270.452 587.046 269.623 586.624 267.72C581.049 242.565 554.15 211.21 526.713 211.885C521.794 212.006 515.933 219.498 522.459 222.672C524.386 222.418 524.506 222.179 526.09 220.906C526.172 218.408 524.101 219.815 523.149 217.285L523.879 216.31C527.431 215.379 529.468 216.614 530.683 219.895C529.606 234.073 505.386 224.326 514.27 212.393C518.493 206.72 531.503 206.031 538.014 205.761C534.771 204.522 530.05 202.478 526.21 202.199C519.44 201.706 502.144 209.839 498.192 201.026C495.156 194.255 499.097 192.242 504.78 190.22C504.283 187.037 504.051 184.041 503.784 180.843C517.606 166.665 523.843 190.71 533.097 197.402C541.333 203.358 550.781 207.672 559.973 211.961C533.736 185.652 557.875 184.543 561.255 189.113C561.824 191.86 560.845 195.429 560.284 198.269C562.23 205.251 581.326 235.799 587.96 230.22C588.895 227.907 589.147 226.235 589.193 223.611C589.632 198.392 578.849 167.671 547.256 177.823C543.063 179.17 540.366 185.538 534.155 185.332C527.317 182.62 523.709 163.534 547.326 174.446C556.599 172.957 562.457 174.057 571.651 173.518C554.536 166.393 537.248 170.38 527.856 165.857C526.497 164.363 526.491 163.918 526.097 161.909C527.662 156.953 532.182 158.612 534.984 155.896C536.669 154.263 535.402 150.87 538.339 147.878C547.653 145.543 555.318 161.229 561.078 165.467C563.928 167.563 571.532 170.843 575.06 172.456C569.973 160.613 559.234 157.98 552.772 147.496C550.146 143.236 550.685 136.855 555.501 134.468C558.298 134.296 561.005 135.816 563.604 136.983C566.383 134.529 567.89 132.762 571.682 132.945C578.983 136.952 573.906 152.005 572.121 158.387Z"/><path fill="#817F91" d="M641.769 336.092C651.607 329.066 663.299 320.825 672.59 313.224C681.339 319.583 696.743 330.482 705.886 336.028L715.317 336.039C715.252 354.081 714.582 378.496 715.565 396.196C720.024 395.892 726.088 394.38 727.505 399.727C726.78 403.445 725.577 404.737 722.937 407.31C716.907 414.454 709.607 425.366 704.206 433.232L708.818 437.529L708.78 457.908L701.678 464.22C686.349 463.51 658.039 463.478 642.969 464.339C641.925 463.171 638.558 460.271 637.244 459.077C636.793 452.246 637.075 444.448 637.297 437.567L642.288 433.106C636.187 425.154 629.821 414.664 623.411 407.423C621.588 406.177 618.281 403.001 617.929 400.899C616.985 395.259 629.901 396.093 632.536 395.959C632.632 376.005 632.585 356.05 632.396 336.096L641.769 336.092Z"/><path fill="#817F91" d="M623.411 407.423C635.927 405.442 663.603 406.333 677.108 406.144C687.031 406.006 714.221 405.941 722.937 407.31C716.907 414.454 709.607 425.366 704.206 433.232L708.818 437.529L708.78 457.908L701.678 464.22C686.349 463.51 658.039 463.478 642.969 464.339C641.925 463.171 638.558 460.271 637.244 459.077C636.793 452.246 637.075 444.448 637.297 437.567L642.288 433.106C636.187 425.154 629.821 414.664 623.411 407.423Z"/><path fill="#9C9AB0" d="M641.851 433.234C644.78 430.921 699.974 431.026 704.206 433.232C700.559 435.046 645.434 435.086 641.851 433.234Z"/><path fill="#9C9AB0" d="M652.831 395.922C652.725 382.011 649.742 356.72 659.059 346.16C665.446 338.921 679.856 337.749 686.709 345.204C697.589 357.369 694.513 381.336 694.277 396.422C700.164 396.418 709.987 396.705 715.565 396.196C720.024 395.892 726.088 394.38 727.505 399.727C726.78 403.445 725.577 404.737 722.937 407.31C714.221 405.941 687.031 406.006 677.108 406.144C663.603 406.333 635.927 405.442 623.411 407.423C621.588 406.177 618.281 403.001 617.929 400.899C616.985 395.259 629.901 396.093 632.536 395.959C639.605 396.112 645.748 396.159 652.831 395.922Z"/><path fill="#D4C1F4" d="M670.338 346.539C670.635 346.541 670.933 346.544 671.231 346.549C693.739 346.965 688.823 380.634 688.249 396.089L678.727 396.15L658.712 396.155C658.428 385.379 657.279 368.02 659.715 357.805C661.109 351.959 665.217 349.068 670.338 346.539Z"/><path fill="#33344F" d="M672.209 195.499L674.924 195.703C677.638 208.629 681.197 221.284 684.681 234.02C689.809 252.76 693.924 271.634 699.226 290.342L700.994 287.082C707.154 287.653 715.937 288.01 721.708 285.858C724.056 288.559 726.805 291.525 728.72 294.504L719.748 294.615C719.649 300.34 719.451 306.327 719.464 312.028C722.056 314.302 731.979 323.95 734.459 323.902L734.696 321.812C735.861 329.194 741.067 329.755 746.736 336.045L735.017 336.055L715.317 336.039L705.886 336.028C696.743 330.482 681.339 319.583 672.59 313.224C663.299 320.825 651.607 329.066 641.769 336.092L632.396 336.096C626.466 335.813 612.544 335.733 606.936 336.275C605.205 336.019 604.814 336.102 603.542 335.023C603.956 332.851 605.701 331.872 607.606 330.036C611.241 327.863 627.547 313.692 630.688 310.541L630.636 294.636C632.571 294.143 646.626 293.501 649.786 293.268C648.964 290.691 648.686 289.869 648.379 287.142C652.93 279.899 669.061 208.678 672.209 195.499Z"/><path fill="#5A629B" d="M672.209 195.499L674.924 195.703C677.638 208.629 681.197 221.284 684.681 234.02C689.809 252.76 693.924 271.634 699.226 290.342L698.851 294.671C692.267 290.796 679.789 279.383 673.691 274.039C666.038 281.111 658.053 287.816 649.765 294.131L649.786 293.268C648.964 290.691 648.686 289.869 648.379 287.142C652.93 279.899 669.061 208.678 672.209 195.499Z"/><path fill="#9C9AB0" d="M721.708 285.858C724.056 288.559 726.805 291.525 728.72 294.504L719.748 294.615C716.973 293.474 703.258 294.545 699.357 294.758L698.851 294.671L699.226 290.342L700.994 287.082C707.154 287.653 715.937 288.01 721.708 285.858Z"/><path fill="#817F91" d="M699.357 294.758C703.258 294.545 716.973 293.474 719.748 294.615C719.649 300.34 719.451 306.327 719.464 312.028C712.909 306.446 705.559 300.602 699.357 294.758Z"/><path fill="#817F91" d="M649.786 293.268L649.765 294.131C644.957 298.33 635.456 307.054 630.688 310.541L630.636 294.636C632.571 294.143 646.626 293.501 649.786 293.268Z"/><path fill="#33344F" d="M804.469 512.803C804.91 512.755 805.354 512.725 805.797 512.713C837.849 511.912 841.102 562.367 866.562 571.823C866.809 571.914 871.034 571.754 871.509 571.734C859.474 580.456 849.423 589.393 840.552 601.461C836.286 607.315 832.471 613.485 829.14 619.917C827.356 623.334 823.039 634.244 821.271 635.488L820.213 635.133C810.846 616.576 795.384 594.826 784.318 576.979C779.525 569.249 767.477 549.699 762.11 544.29C759.231 543.502 753.9 543.022 750.77 542.647C762.534 534.069 791.387 515.302 804.469 512.803ZM773.944 539.359C787.447 562.902 805.782 594.682 820.635 617.123C828.381 603.37 838.762 583.257 849.358 572.25C844.315 564.224 839.386 555.977 834.137 548.092C824.812 534.086 821.797 524.245 803.169 525.857C790.653 529.514 785.163 532.483 773.944 539.359Z"/><path fill="#33344F" d="M804.921 529.203C816.083 527.613 820.856 533.661 826.68 542.211C833.31 551.944 839.339 562.102 845.83 571.934C832.417 586.145 829.792 597.242 819.963 610.568C806.513 587.972 790.648 562.98 777.982 540.257C785.455 535.115 796.066 531.05 804.921 529.203ZM790.809 544.806C794.271 550.561 817.847 589.63 820.961 591.463C825.387 584.285 829.95 577.192 834.647 570.187C828.56 561.865 814.49 541.418 807.119 536.437C806.364 536.344 805.303 536.163 804.577 536.194C799.035 539.105 795.831 540.977 790.809 544.806Z"/><path fill="#817F91" d="M642.969 464.339C658.039 463.478 686.349 463.51 701.678 464.22L704.177 467.606C706.042 469.608 708.47 472.062 710.196 474.105C710.932 483.714 710.518 494.46 710.65 504.224C713.871 504.293 718.204 504.094 721.069 505.294C722.34 506.803 721.953 506.212 722.28 508.385C721.773 512.009 721.932 519.255 721.927 523.212C706.663 529.362 688.597 537.91 673.278 544.643C657.668 537.4 640.737 530.673 624.793 523.44C624.81 518.396 624.906 513.628 624.438 508.598C624.79 505.99 624.338 506.801 625.879 505.15C628.789 503.815 632.074 504.098 635.304 504.098C635.256 493.733 635.274 483.368 635.358 473.004C637.495 470.816 639.616 468.513 642.05 466.673L642.969 464.339Z"/><path fill="#817F91" d="M624.438 508.598C624.79 505.99 624.338 506.801 625.879 505.15C628.789 503.815 632.074 504.098 635.304 504.098C657.081 506.092 688.45 503.711 710.65 504.224C713.871 504.293 718.204 504.094 721.069 505.294C722.34 506.803 721.953 506.212 722.28 508.385C721.773 512.009 721.932 519.255 721.927 523.212C706.663 529.362 688.597 537.91 673.278 544.643C657.668 537.4 640.737 530.673 624.793 523.44C624.81 518.396 624.906 513.628 624.438 508.598Z"/><path fill="#9C9AB0" d="M624.438 508.598C624.79 505.99 624.338 506.801 625.879 505.15C628.789 503.815 632.074 504.098 635.304 504.098C657.081 506.092 688.45 503.711 710.65 504.224C713.871 504.293 718.204 504.094 721.069 505.294C722.34 506.803 721.953 506.212 722.28 508.385C709.943 509.079 695.702 508.81 683.223 508.78L624.438 508.598Z"/><path fill="#9C9AB0" d="M642.969 464.339C658.039 463.478 686.349 463.51 701.678 464.22L704.177 467.606C693.014 464.895 654.628 466.974 642.05 466.673L642.969 464.339Z"/><path fill="#33344F" d="M533.199 511.531C547.559 512.301 569.901 528.05 583.181 535.261L579.168 543.219C570.067 537.735 561.171 531.831 551.222 527.961C544.177 525.221 535.598 523.044 528.382 526.371C518.54 530.908 495.095 567.767 491.019 578.654C496.18 594.663 511.159 606.069 523.478 617.019C531.237 604.255 539.41 591.747 547.983 579.516C543.942 576.977 539.376 574.728 535.123 572.515C532.4 570.96 527.712 568.777 524.792 567.314L530.194 560.81L564.639 579.256C549.182 588.242 533.083 620.587 523.612 636.65C519.092 610.078 487.23 608.236 481.429 583.562C478.475 570.997 493.139 554.047 499.921 544.161C509.576 530.09 514.274 514.577 533.199 511.531Z"/><path fill="#33344F" d="M589.44 540.646L602.005 544.338L580.224 618.582C587.776 627.382 594.573 637.021 602.421 646.078C611.975 641.171 621.81 635.456 631.22 630.168C632.261 610.192 638.385 575.314 641.493 554.288C645.881 554.547 649.913 555.033 654.267 555.552C649.925 560.203 650.274 563.04 649.628 569.26C647.232 585.889 640.341 621.067 643.246 635.681C626.783 646.174 615.395 650.88 597.846 663.663C590.859 651.628 583.604 639.599 575.62 628.196C572.704 624.032 569.428 620.771 566.397 616.468C567.508 612.348 571.704 612.049 572.149 609.94C575.011 596.35 593.375 552.294 589.44 540.646Z"/><path fill="#EFD7AC" d="M674.961 106.554C676.717 106.471 680.256 106.081 681.329 107.505C679.419 111.013 669.729 114.382 666.769 123.549C664.293 131.213 664.034 138.299 667.356 145.923C670.218 152.461 675.564 157.589 682.214 160.177C692.932 164.345 702.074 161.947 711.93 157.488C707.197 166.29 702.744 170.802 694.399 175.798C690.868 177.446 687.147 178.65 683.321 179.385C673.669 181.249 665.021 179.915 656.852 174.296C648.558 168.639 642.886 159.885 641.11 150.003C639.346 140.069 641.663 129.844 647.536 121.642C654.671 111.672 663.5 108.364 674.961 106.554Z"/><path fill="#33344F" d="M604.913 545.963C609.037 547.01 611.704 547.873 615.683 549.286C607.865 564.417 600.233 598.483 597.095 615.956C599.079 620.761 602.353 625.768 605.145 630.149C607.134 628.633 614.953 622.658 615.563 621.431C622.038 608.404 628.126 564.933 626.68 552.321C630.196 552.599 634.443 553.333 637.988 553.847C637.606 557.361 637.167 560.869 636.67 564.369C636.266 570.43 634.462 580.569 633.552 586.809C631.484 600.585 629.583 614.386 627.849 628.208C619.598 632.595 611.414 637.108 603.302 641.746C598.315 636.545 587.259 623.562 584.063 617.616C590.863 593.688 597.813 569.803 604.913 545.963Z"/><path fill="#33344F" d="M704.577 555.627C706.119 555.371 706.056 555.313 707.439 555.968C710.042 561.02 712.446 572.897 714.067 578.81C719.751 599.552 723.269 624.935 729.226 645.125C746.079 643.273 766.799 637.034 783.318 632.362L791.942 642.861C787.348 643.977 782.576 645.311 777.984 646.519C755.615 652.351 735.442 656.486 712.706 660.815C717.613 652.797 719.28 649.235 717.349 639.706C712.185 614.228 706.528 588.841 701.113 563.416C700.314 559.66 698.725 558.896 695.673 556.559C696.872 555.794 702.69 555.736 704.577 555.627Z"/><path fill="#33344F" d="M529.498 528.626C550.059 527.722 561.063 535.115 577.419 546.213L572.473 555.659C565.386 541.562 551.61 539.739 537.357 537.457C526.342 544.882 508.837 564.652 508.177 578.64C507.733 588.046 512.65 594.198 518.557 600.674C522.178 595.177 524.958 590.417 527.748 584.48L527.935 583.314C526.316 579.148 519.29 578.464 515.458 577.908C518.196 575.079 519.972 572.918 522.399 569.878C529.641 573.03 536.744 576.492 543.688 580.255C536.278 590.299 529.286 601.706 522.718 612.305C508.36 601.264 499.932 591.85 496.15 573.817C502.279 563.768 520.717 534.048 529.498 528.626Z"/><path fill="#33344F" d="M723.598 554.319L725.267 554.409C725.581 557.526 724.15 560.518 724.577 563.013C725.949 571.03 728.009 579.232 729.906 587.132C733.567 601.791 736.905 616.528 739.915 631.334C755.985 626.118 763.378 628.393 779.114 616.997C780.167 621.575 780.672 624.547 781.252 629.206C779.451 630.037 776.51 630.921 774.529 631.577C759.656 635.505 746.353 638.841 731.277 642.032C728.758 632.625 726.634 621.405 724.477 611.701C720.343 592.931 716.055 574.194 711.614 555.494C715.605 555.062 719.6 554.671 723.598 554.319Z"/><path fill="#33344F" d="M663.073 555.983L674.718 556.205C674.646 583.086 675.944 634.799 674.238 663.218C673.919 663.578 673.599 663.937 673.28 664.297L661.417 664.198C662.4 662.432 663.426 660.633 664.207 658.767C666.673 652.881 666.255 576.903 665.418 566.019C665.135 562.341 664.523 559.38 663.073 555.983Z"/><path fill="#33344F" d="M691.268 556.5L687.268 562.6C687.139 579.578 687.117 596.557 687.202 613.536C687.238 629.308 686.138 647.029 690.13 662.105L690.184 662.784C688.77 663.99 681.02 664.24 678.611 664.439C678.375 629.375 677.479 591.582 678.457 556.723L691.268 556.5Z"/><path fill="#5A629B" d="M627.519 286.684C628.99 284.857 632.202 280.968 632.772 278.911C637.975 260.133 636.023 235.185 638.216 215.902C641.197 238.752 637.346 267.421 647.705 286.825L648.379 287.142C648.686 289.869 648.964 290.691 649.786 293.268C646.626 293.501 632.571 294.143 630.636 294.636C627.76 294.671 624.257 294.476 621.328 294.395L627.519 286.684Z"/><path fill="#9C9AB0" d="M627.519 286.684C634.434 287.12 640.802 286.952 647.705 286.825L648.379 287.142C648.686 289.869 648.964 290.691 649.786 293.268C646.626 293.501 632.571 294.143 630.636 294.636C627.76 294.671 624.257 294.476 621.328 294.395L627.519 286.684Z"/><path fill="#5A629B" d="M700.994 287.082C705.011 280.802 707.348 275.729 707.915 268.057C708.905 254.683 709.058 241.243 710.058 227.867C710.348 223.991 710.355 219.194 711.208 215.456C713.944 232.798 711.103 260.519 716.386 278.089C717.188 280.753 719.855 283.775 721.708 285.858C715.937 288.01 707.154 287.653 700.994 287.082Z"/><path fill="#D4C1F4" d="M673.092 179.96C675.169 184.056 678.605 189.637 679.139 193.896L678.581 195.232C677.006 195.565 676.53 195.635 674.924 195.703L672.209 195.499C669.798 195.485 669.455 195.915 667.886 194.638C666.738 190.566 670.484 184.6 672.594 180.83C672.757 180.538 672.923 180.248 673.092 179.96Z"/></svg>